# Alias OBJ Model File
# Exported from SketchUp, (c) 2000-2012 Trimble Navigation Limited
# File units = meters

mtllib WallFin2.mtl

g Mesh1 Group2 Group1 Model

usemtl ForegroundColor
v 0 0 -0
vt 0 0
vn 0.0254 0 -0
v 0 0 -2
vt 1 0
v 0 4 -2
vt 1 1
v 0 4 -0
vt 0 1
f 1/1/1 2/2/1 3/3/1 4/4/1 

vn -0.0254 -0 0
f 1/1/2 4/4/2 3/3/2 2/2/2 

vn 0 0 0.0254
v 2 0 -0
v 2 4 -0
f 1/1/3 5/2/3 6/3/3 4/4/3 

vn -0 -0 -0.0254
f 1/1/4 4/4/4 6/3/4 5/2/4 

v 2 0 -2
v 2 4 -2
f 5/1/1 7/2/1 8/3/1 6/4/1 

f 5/1/2 6/4/2 8/3/2 7/2/2 

g Mesh2 Group2 Group1 Model

v 1.97744 0 -2
vn 0 0 -0.0254
v -0.0225634 0 -2
v -0.0225634 4 -2
v 1.97744 4 -2
f 9/1/5 10/2/5 11/3/5 12/4/5 

vn -0 -0 0.0254
f 9/1/6 12/4/6 11/3/6 10/2/6 

g Mesh3 Group1 Model

vn 0 0.0254 -0
v 2 4 -0
v 2 4 -2
v 0 4 -2
f 4/1/7 13/2/7 14/3/7 15/4/7 

vn -0 -0.0254 0
f 4/1/8 15/4/8 14/3/8 13/2/8 

g Mesh4 Group1 Model

v 2 0 -0
v 2 0 -2
v 0 0 -2
f 1/1/7 16/2/7 17/3/7 18/4/7 

f 1/1/8 18/4/8 17/3/8 16/2/8 

